<svg width="412" height="782" viewBox="0 0 412 782" fill="none" xmlns="http://www.w3.org/2000/svg">
<rect width="412" height="782" fill="white"/>
<rect x="81" y="128" width="251" height="575" rx="25" fill="#DEDEDE"/>
<path d="M107.724 115.276H109.25V117.152C109.25 117.992 109.175 118.799 109.026 119.574C108.877 120.339 108.648 121.058 108.34 121.73C108.041 122.393 107.654 122.981 107.178 123.494C106.711 123.998 106.156 124.399 105.512 124.698L104.406 123.158C104.975 122.906 105.465 122.575 105.876 122.164C106.296 121.744 106.641 121.268 106.912 120.736C107.183 120.195 107.383 119.621 107.514 119.014C107.654 118.407 107.724 117.787 107.724 117.152V115.276ZM108.088 115.276H109.6V117.152C109.6 117.759 109.665 118.351 109.796 118.93C109.927 119.509 110.123 120.055 110.384 120.568C110.655 121.081 110.991 121.539 111.392 121.94C111.803 122.332 112.283 122.645 112.834 122.878L111.756 124.39C111.131 124.101 110.585 123.713 110.118 123.228C109.661 122.743 109.283 122.183 108.984 121.548C108.685 120.904 108.461 120.213 108.312 119.476C108.163 118.729 108.088 117.955 108.088 117.152V115.276ZM113.464 114.254H115.326V127.26H113.464V114.254ZM125.769 114.282H127.645V123.55H125.769V114.282ZM127.127 117.894H129.367V119.42H127.127V117.894ZM122.171 115.248H124.145C124.145 116.424 123.912 117.474 123.445 118.398C122.978 119.322 122.297 120.111 121.401 120.764C120.514 121.417 119.422 121.931 118.125 122.304L117.355 120.834C118.41 120.535 119.292 120.153 120.001 119.686C120.72 119.219 121.261 118.687 121.625 118.09C121.989 117.493 122.171 116.849 122.171 116.158V115.248ZM117.915 115.248H123.165V116.732H117.915V115.248ZM119.273 125.524H128.093V127.022H119.273V125.524ZM119.273 122.612H121.135V126.196H119.273V122.612ZM133.216 121.324H135.064V124.81H133.216V121.324ZM137.29 121.338H139.138V124.824H137.29V121.338ZM130.332 124.32H142.078V125.818H130.332V124.32ZM131.228 115.29H141.112V116.788H131.228V115.29ZM131.298 120.414H141.07V121.884H131.298V120.414ZM132.992 116.522H134.854V120.624H132.992V116.522ZM137.486 116.522H139.348V120.624H137.486V116.522Z" fill="#2C2C2C"/>
<path d="M149.604 118.727V126H148.287V120.009H148.244L146.543 121.096V119.888L148.351 118.727H149.604Z" fill="#004FFF"/>
<path d="M151.325 118.69H156.665V119.36H151.325V118.69ZM153.995 119.83C154.421 119.83 154.798 119.897 155.125 120.03C155.451 120.163 155.705 120.353 155.885 120.6C156.065 120.84 156.155 121.127 156.155 121.46C156.155 121.793 156.065 122.08 155.885 122.32C155.705 122.56 155.451 122.75 155.125 122.89C154.798 123.023 154.421 123.09 153.995 123.09C153.568 123.09 153.191 123.023 152.865 122.89C152.538 122.75 152.281 122.56 152.095 122.32C151.915 122.08 151.825 121.793 151.825 121.46C151.825 121.127 151.915 120.84 152.095 120.6C152.281 120.353 152.538 120.163 152.865 120.03C153.191 119.897 153.568 119.83 153.995 119.83ZM153.995 120.47C153.581 120.47 153.248 120.56 152.995 120.74C152.748 120.913 152.625 121.153 152.625 121.46C152.625 121.76 152.748 122 152.995 122.18C153.248 122.353 153.581 122.44 153.995 122.44C154.401 122.44 154.731 122.353 154.985 122.18C155.238 122 155.365 121.76 155.365 121.46C155.365 121.153 155.238 120.913 154.985 120.74C154.738 120.56 154.408 120.47 153.995 120.47ZM157.495 117.73H158.325V123.39H157.495V117.73ZM158.095 120.23H159.655V120.92H158.095V120.23ZM152.445 123.88H158.325V126.78H157.495V124.56H152.445V123.88ZM153.585 117.69H154.415V119.06H153.585V117.69ZM167.114 117.74H167.944V124.44H167.114V117.74ZM164.554 118.91H167.424V119.58H164.554V118.91ZM162.154 125.9H168.184V126.58H162.154V125.9ZM162.154 123.86H162.984V126.2H162.154V123.86ZM161.034 118.39H161.854V122.66H161.034V118.39ZM161.034 122.4H161.714C162.354 122.4 162.987 122.377 163.614 122.33C164.247 122.283 164.914 122.197 165.614 122.07L165.704 122.76C164.984 122.893 164.304 122.983 163.664 123.03C163.024 123.07 162.374 123.09 161.714 123.09H161.034V122.4ZM164.554 120.64H167.424V121.31H164.554V120.64Z" fill="#555555"/>
</svg>
